<svg xmlns="http://www.w3.org/2000/svg" xmlns:xlink="http://www.w3.org/1999/xlink" width="40" zoomAndPan="magnify" viewBox="0 0 30 30.000001" height="40" preserveAspectRatio="xMidYMid meet" version="1.0"><defs><clipPath id="671e803eef"><path d="M 0.484375 0 L 29.515625 0 L 29.515625 29 L 0.484375 29 Z M 0.484375 0 " clip-rule="nonzero"/></clipPath></defs><g clip-path="url(#671e803eef)"><path fill="#1ba553" d="M 14.988281 0.0273438 C 6.925781 0.0546875 0.484375 6.59375 0.589844 14.632812 C 0.609375 16.261719 0.898438 17.84375 1.457031 19.375 C 2.015625 20.90625 2.816406 22.304688 3.851562 23.5625 C 4.019531 23.765625 4.113281 24 4.136719 24.261719 C 4.160156 24.519531 4.105469 24.765625 3.976562 24.996094 L 2.734375 27.21875 C 2.386719 27.835938 2.949219 28.566406 3.636719 28.390625 L 7.851562 27.320312 C 8.15625 27.242188 8.449219 27.273438 8.730469 27.410156 C 10.617188 28.324219 12.609375 28.804688 14.707031 28.847656 C 22.8125 29.03125 29.464844 22.570312 29.492188 14.484375 C 29.515625 6.488281 23.007812 0 14.988281 0.0273438 Z M 15.039062 27.078125 C 14.207031 27.078125 13.382812 26.996094 12.566406 26.832031 C 11.75 26.671875 10.960938 26.433594 10.191406 26.113281 C 9.421875 25.796875 8.691406 25.40625 8 24.945312 C 7.308594 24.484375 6.667969 23.960938 6.078125 23.375 C 5.492188 22.789062 4.964844 22.148438 4.503906 21.460938 C 4.042969 20.769531 3.652344 20.042969 3.332031 19.277344 C 3.015625 18.507812 2.773438 17.71875 2.613281 16.90625 C 2.449219 16.089844 2.367188 15.269531 2.367188 14.441406 C 2.367188 7.460938 8.042969 1.804688 15.039062 1.804688 C 22.011719 1.804688 27.667969 7.417969 27.710938 14.359375 C 27.753906 21.324219 22.023438 27.078125 15.039062 27.078125 Z M 15.039062 27.078125 " fill-opacity="1" fill-rule="nonzero"/></g><path fill="#1ba553" d="M 12.773438 8.296875 L 12.78125 8.308594 L 13.535156 9.804688 C 13.703125 10.136719 13.753906 10.484375 13.691406 10.851562 C 13.625 11.21875 13.453125 11.527344 13.179688 11.78125 C 12.910156 12.03125 12.738281 12.339844 12.671875 12.703125 C 12.605469 13.070312 12.65625 13.417969 12.820312 13.75 C 13.273438 14.65625 14.058594 15.910156 15.257812 16.8125 C 15.535156 17.019531 15.84375 17.132812 16.1875 17.152344 C 16.535156 17.167969 16.855469 17.089844 17.148438 16.910156 L 17.636719 16.617188 C 18.105469 16.332031 18.59375 16.285156 19.105469 16.480469 L 21.039062 17.214844 C 21.246094 17.292969 21.433594 17.410156 21.59375 17.5625 C 21.757812 17.714844 21.882812 17.890625 21.972656 18.09375 C 22.066406 18.296875 22.113281 18.507812 22.121094 18.730469 C 22.128906 18.953125 22.089844 19.167969 22.011719 19.375 C 21.988281 19.433594 21.964844 19.488281 21.933594 19.546875 L 21.398438 20.582031 C 21.21875 20.929688 20.949219 21.183594 20.589844 21.34375 C 20.234375 21.503906 19.863281 21.53125 19.484375 21.433594 C 16.445312 20.652344 9.203125 17.925781 8.621094 9.6875 C 8.597656 9.351562 8.667969 9.039062 8.832031 8.746094 C 8.996094 8.453125 9.230469 8.230469 9.527344 8.078125 L 10.515625 7.574219 C 10.710938 7.472656 10.921875 7.410156 11.144531 7.394531 C 11.367188 7.375 11.582031 7.398438 11.792969 7.46875 C 12.007812 7.535156 12.199219 7.640625 12.367188 7.785156 C 12.539062 7.929688 12.671875 8.097656 12.773438 8.296875 Z M 12.773438 8.296875 " fill-opacity="1" fill-rule="nonzero"/></svg>